/* XPM */
static char *result[] = {
/* columns rows colors chars-per-pixel */
"64 64 94 2 ",
"   c #120E1D",
".  c #15101F",
"X  c #161121",
"o  c #181425",
"O  c #1A1628",
"+  c #1C1A2D",
"@  c #1F1C31",
"#  c #211E32",
"$  c #242236",
"%  c #24243C",
"&  c #28273E",
"*  c #29283F",
"=  c #262640",
"-  c #282740",
";  c #272842",
":  c #2C2C44",
">  c #2C2E4B",
",  c #302F48",
"<  c #2E314F",
"1  c #32324B",
"2  c #39384E",
"3  c #2E3151",
"4  c #333654",
"5  c #3A3A54",
"6  c #323759",
"7  c #34395B",
"8  c #3C3D5B",
"9  c #373D62",
"0  c #383F64",
"q  c #413F53",
"w  c #3E405E",
"e  c #3A4065",
"r  c #3D456D",
"t  c #3E4770",
"y  c #3F4872",
"u  c #424054",
"i  c #40415F",
"p  c #434564",
"a  c #464866",
"s  c #41476C",
"d  c #4B4D6D",
"f  c #414A74",
"g  c #4B4F72",
"h  c #464F79",
"j  c #4D5072",
"k  c #4B537D",
"l  c #545670",
"z  c #5C5D75",
"x  c #50557A",
"c  c #565A7C",
"v  c #585C7E",
"b  c #63647A",
"n  c #4E5681",
"m  c #4F5883",
"M  c #565C84",
"N  c #595D81",
"B  c #565E88",
"V  c #5D6286",
"C  c #5B638D",
"Z  c #5F6791",
"A  c #65698B",
"S  c #696D8F",
"D  c #606791",
"F  c #646B94",
"G  c #6A6E91",
"H  c #676E98",
"J  c #686F99",
"K  c #6C7195",
"L  c #6A719B",
"P  c #717594",
"I  c #7B7E9A",
"U  c #767DA3",
"Y  c #797FA3",
"T  c #7B80A5",
"R  c #7C83A9",
"E  c #83859F",
"W  c #8587A0",
"Q  c #8688A1",
"!  c #8187AA",
"~  c #858AAD",
"^  c #898EAF",
"/  c #888EB1",
"(  c #8D93B4",
")  c #9297B6",
"_  c #9499B7",
"`  c #959AB9",
"'  c #9A9EBC",
"]  c #9DA1BE",
"[  c #9EA3C0",
"{  c #A3A7C2",
"}  c #A5A9C3",
"|  c #A8ACC7",
" . c #A8ACC8",
".. c None",
/* pixels */
"................................... . .                 .     .     .     .     .     . .   . ..................................",
"..................................o o o o o o O o o X . o O . . . . o O . . . . . . . O O . O ..................................",
"..................................@ # @ # $ $ $ $ $ $ $ $ $ $ $ * $ $ $ $ $ * $ $ $ $ # # # # ..................................",
"................................$ * : 1 1 2 2 u u u u u u u u u u u u u u u u u u u 2 2 , * * $ ................................",
"..............................+ & 1 8 p d l z b b b b b b b b b b b b b b b b b b z l a p w < * @ ..............................",
"..........................  o # > w j N A K I W Q Q E E Q E E E E Q Q E Q Q Q Q T T P A V j w : $ o . ..........................",
"..........................O @ & 2 d V K T ^ ) ` { ] ] ] { ] ] ] ] ] ] ] ] ] } ] ] ) ^ T K V d 2 & @ O ..........................",
"........................# $ : 1 p c K T ( ` [ } | | | } | | } } } } } | } | | | [ [ ` / T G v a 1 * $ $ ........................",
"......................# * 1 8 a c S T ^ _ ] { } | | | | | | | | | | | | } | | | | } ] _ / T S l a 8 1 - @ ......................",
"..................  o $ , 8 g N G Y ^ _ [ [ { } | } | } | } } } } } } } } } | } | } { ] _ ~ T S N j 8 , $ o   ..................",
"..................o @ * 5 d V K R / _ ] } { { { } { { { } { } { { { } } { { { { { { { { ] ] ^ T L V d 5 * + o ..................",
"................# # * 1 a v K R / _ ] { } } } { { { { } { { { { { { } } { { { { { { } } [ ] _ ^ R K v a 1 * $ + ................",
"..............# - , 5 a c S Y / _ ' [ } } } } { { { { { { { { { { { { } { { { { { } } } } { ] ) / R S c a 5 , & # ..............",
"..........  O $ , 8 d N S Y ^ _ ] ] { } } } { { } { { { { { { { } { { { { { { } { } } } { { ] ] _ ^ I S v j w 1 % O   ..........",
"..........o @ * 8 g A G Y ^ _ ] { { { { { { { { { { { { { { { { { { { { { { { { { { { { { { { { ] _ ^ Y K V j 8 * # o ..........",
"........@ # * 4 a N L Y / ` ] } { } { { { { { { } { { { } { { { { { { { { { { { { { { { { { { } { ] _ / R K v a 1 & $ + ........",
"......$ * , 5 a c S T ( _ ] { } } } } { { { { { { } { { { { { { { { { { } { { { { { { { { { } } } { ' ` / Y G c a 5 , - $ ......",
"  O # * 2 i d v S T ^ _ ' ] [ } } } { { { { { { { { { { { { { { { } { { { { { { { { { { { { } } } { [ ' ` / Y G v d q 4 : # o   ",
"  o # : q g N G U / ` [ [ { } } } { { { { { { { { { { { { { } { { { { { { { { { { { { } { { { } { { { { ] ` / Y G V g 8 : # o   ",
". o # , s c H Y ~ ` ] { } } [ } { { { { { { { } { { { { { { { { { { { { { { { { { { { { { { { { { { { { { [ ` ~ Y F c p , # o . ",
"  o # > p N J R ( ' [ } } } { { { { } { { { { { { { { { { { { { { { { { { { } { { { { { { { { { { { }  .} { ` ( R L c p , # o   ",
"  o # , p M L ! ( ' {  .| } } { { { { { { { { { { { } { { { { { { { { } { { { { } { { { { { { } { { } } } { ' ( R L M p , # o . ",
"  O # , p M J R ( _ ] } } } { { { { { { { { } { { { { { { { } { { { { { { { { { { { { { { { { { { { } | } [ ' / R L M p : # o   ",
"  o # : i c H U ~ ) ] { { } { { { { { { { { { { { { { { } { { { { { { { { { { { } { { { { { { { { { { { { [ ` ~ U G c p , # o . ",
"  o # : 8 x D L R ^ _ ' ] { { } } } { { { { { { { { { } { { { { { { { { { { { { { { { { { { { } } [ } ] ` _ / R L F k w : @ o X ",
". O @ : 6 g M F L R ~ ) ` ] { } } } } { { { { { { { { { { { { { } { { { } { { { { { { { { } } } } { ] ` ( ~ R L F B g 5 * + o . ",
"  o + * 4 r k B F L Y ! ( ` ] } } } { { { { { { { { { { { { { } { { { { { { { { { { { { { { } } } ] ' ( ~ T L F B k s 4 = + o X ",
"X o + % < 0 h n B F L U ~ ) ] [ { } { { { { { { { { { { { { { { { { { { } { { { { { { { { { } } { ] ( ~ U L Z C k f e < % + o . ",
"X o + % > 9 t h m B D L T ~ _ ] ] { { { { { { { { { { { { { { { } { { { { { { { [ } } { } } [ ] ' _ ~ T J Z C m h t 9 < % + o X ",
"X o + % > 9 t h k m B C L T ~ ( ` ] { } } } { { { { { { { { { { { { { { { { { { } } } } } [ ] ] ( ~ T L Z B n h h t 9 > % + o X ",
"X o + % < 9 t h h h n B F K Y ~ ( ' ] } } } } { { { { } { { { { { { { { { { { { } } } } } ] ` ( R T L A B n h h y y 9 < % + o X ",
"X o + % < 9 t y f h h n B D L U ! ) ] ] } } { { { { { { { { { { { { { { { } { { [ } } } ] ] ( ~ T J Z V n h h h y y 9 3 % + o X ",
"X o O % 3 9 t f f f f h n B D H U / ) ] [ { { { { { { { { { { { { { { { { { { { { { { { ' ) ^ Y K D B k h f y y y y 9 3 % + o X ",
"X o @ % 3 9 t f f f f f n n B Z P U ~ ) ' ] [ { } } } } } { } } } } { } } } } } { [ ] _ ) ~ R L D B n k h y y h y t 9 < % + o X ",
"X o + = < 9 t y y y f f f h n B F J U ~ ( ` [ { } } } } } } } } } } } } } } } | { ] _ ( ~ Y L C B n h h f y y y y t 9 3 % + o X ",
"X o O = 3 9 t f f f f f f f f n B D K U ~ ( ' { } } } } { } { { { } { { } } } } { ' ) ~ U L F B k h f f y y h f h t 9 3 % + o X ",
"X o + % < 9 t f f f y f y y f n n B D L Y / _ ' [ [ [ [ [ [ [ [ ] ] ] ] ] ] { ] ' _ ~ Y L D B n h f f t f f f f y y e < % + o X ",
"X o @ % 3 9 t y f f f y y y y f h n B D L Y ~ ) ` ` _ _ ) ` ) ) _ _ _ _ _ _ _ _ ) ~ T L D B n h f f t y f y f f y r 9 < % + o X ",
"X o O = 3 9 y f f f f y y y y f f k n B D P U ! ~ ~ ~ ~ R / / R ~ ! ! ~ ~ ! Q ^ R T L D B n h h f f t y y f f f y y 9 < % + o X ",
"X o O % 3 0 y f f f y f y y y f f f h n B D L U U U U U U U U U U U U U U I T T I L F B k h h f f f t y f y f f y y e < % + o X ",
"o o + = < 9 y y n y y y y y f y f f f h m B F J L L L L L L L L L L L L L L L L L F C n h f f f y y y y y y y y y y 9 < % + o . ",
"X o O % < 9 y y f f y y f y f y f s t h n m D H J J L J J J H H J H H L H H L L H C B k f y t y y y y y y y y n y y e 3 % + o X ",
"X o @ = 3 0 y y f f f y y f y f f t t f n B Z F H J J H J H H H H H H H H H H H F C M k f t t y y h y y y y y y h y r 3 % + o X ",
"X o O = 3 e y h f f y f f y f y s t f f k m D F J J J J J H H H H H H H H L H H F Z M k h y t y y y y y n y h y y y e 3 % + o X ",
"X o O = 3 9 r y f f f y f f t f t s f f n B D H J J L J J J J J H H L H H L H L H Z B n f y y y y h y y y y y h y r 9 < % + o X ",
"X o + = > 6 0 r t f f f y y f f t f f h k m D H L J J J J J J J H L H H H L L L H Z B k h f y t y y y y y y y y r e 6 > % + o X ",
"X o @ @ ; > 6 6 0 0 f f f f f t f t f f n B D H J L L J J J J J H H L L H L L H H Z B k f f y y y y n y y y r e 6 6 > ; $ @ o X ",
"......@ @ = ; < 9 0 y f f f f y f t f f n B D F J L J J J J J J L H H H H L H L H Z B k h y y y h y y y y y e 6 > ; % $ @ ......",
"........+ @ @ = 3 9 t y y f y y y y y h n B Z H J J L J J J J J J J J J J L J J F Z B n h y y y y y y h y t 9 3 = @ @ O ........",
"..........o O % > 6 9 r y y y f y y y h n B Z H J J J J J J J J J J J J J J L L F Z B h h y y y y y y y r 9 6 ; # + O ..........",
"..........X O @ = > 6 9 0 r y f y y y y n B Z F L J L J J J J J J J J J J J L J H Z B n h y y h y y t e 9 6 < = @ + X ..........",
"..............@ @ = ; < 7 9 t h h y y h h B Z H J L J J J J J J J J J J J J J J H Z B n h y y y y t 0 7 < ; = @ @ ..............",
"................+ @ # ; < 9 r y y y y h n B Z H L J L L J J J J J J J J L L L L H Z B n y y y y y y 9 < = @ @ @ ................",
"..................o @ # ; 6 9 r t t y h k B Z H J L L L J J J J J J J J L L L J F Z B n h y y y t e 6 ; @ + O ..................",
"..................X o @ = < 7 9 0 r y h n B D J L L L L L L L L L L L L L L L L J Z B n h t r 0 9 6 > = @ O X ..................",
"......................+ @ = ; < 7 9 t h n B F J L L L L L L L L L L L L L L L L J F B n h t 9 6 3 > = @ + ......................",
"........................@ @ % = < 7 r h n B F H U J L J J J J J L L J J L L L L H F B n h r 7 < = % @ @ ........................",
"..........................O + @ = 3 9 t k B C D F F H D H F H F H H F F H F H H F C M k t 9 3 = @ O O ..........................",
"..........................X o @ = > 6 0 r g k c N M N N N N v N m M M N N M M N c x g s 0 6 > = @ o X ..........................",
"..............................O # = > 3 6 8 p p p p p p p p p a t 0 p p p p p p p e 8 4 3 > = # O ..............................",
"................................# # % % - - : , , , , , , , , , , , , , , , , , > : : * % % # @ ................................",
"..................................+ + @ @ @ # # # # # # # # # # # # # # # # # # @ @ + # @ + @ ..................................",
"..................................o o o o o o o o o o o o o o o o o o o o o o o o o o o o o o ..................................",
"..................................X X X . . . X               .   .     .     .   X   X X X o .................................."
};
